PathFileType	4	(X/Y/Z)	G:\Shared drives\HPL_Drive\Nord Sprinting Study\Kristen_Nord_test\Trimmed_Nord000005.trc
DataRate	CameraRate	NumFrames	NumMarkers	Units	OrigDataRate	OrigDataStartFrame	OrigNumFrames
200.00	200.00	      5	52	mm	200.00	1869	      2491
Frame#	Time	C7			R_Shoulder			L_Shoulder			Sternum			R_humerus			R_elbow_med			R_elbow_lat			R_forearm			R_wrist_radius			R_wrist_ulna			L_humerus			L_elbow_med			L_elbow_lat			L_forearm			L_wrist_radius			L_wrist_ulna			r.ASIS			r.PSIS			r_IC			L.ASIS			L.PSIS			l_IC			r_thigh1			r_thigh2			r_thigh3			r_thigh4			r_thigh5			r_knee			r_mknee			r_shank_antsup			r_sh2			r_sh3			r_sh4			r_ankle			r_mankle			r_calc			r_5meta			r_toe			L_thigh1			L_thigh2			L_thigh3			L_thigh4			L_knee			L_mknee			L_shank_antsup			L_sh2			L_sh3			L_ankle			L_mankle			L_calc			L_5meta			L_toe			
		X1	Y1	Z1	X2	Y2	Z2	X3	Y3	Z3	X4	Y4	Z4	X5	Y5	Z5	X6	Y6	Z6	X7	Y7	Z7	X8	Y8	Z8	X9	Y9	Z9	X10	Y10	Z10	X11	Y11	Z11	X12	Y12	Z12	X13	Y13	Z13	X14	Y14	Z14	X15	Y15	Z15	X16	Y16	Z16	X17	Y17	Z17	X18	Y18	Z18	X19	Y19	Z19	X20	Y20	Z20	X21	Y21	Z21	X22	Y22	Z22	X23	Y23	Z23	X24	Y24	Z24	X25	Y25	Z25	X26	Y26	Z26	X27	Y27	Z27	X28	Y28	Z28	X29	Y29	Z29	X30	Y30	Z30	X31	Y31	Z31	X32	Y32	Z32	X33	Y33	Z33	X34	Y34	Z34	X35	Y35	Z35	X36	Y36	Z36	X37	Y37	Z37	X38	Y38	Z38	X39	Y39	Z39	X40	Y40	Z40	X41	Y41	Z41	X42	Y42	Z42	X43	Y43	Z43	X44	Y44	Z44	X45	Y45	Z45	X46	Y46	Z46	X47	Y47	Z47	X48	Y48	Z48	X49	Y49	Z49	X50	Y50	Z50	X51	Y51	Z51	X52	Y52	Z52	

1869	9.340	1191.87024	867.62457	1104.31042	1312.70886	897.78448	1081.40540	1058.14697	908.85706	1092.95911	1186.15576	958.28583	998.94025	1470.74817	809.25812	1065.38623	1584.91602	745.71698	978.15039	1569.20740	714.90479	1050.18201	1598.09167	822.67487	1116.19788	1604.95239	938.76483	1135.95398	1640.20776	917.54755	1163.28723	867.48633	829.86816	1077.16077	760.53375	803.29388	985.57849	764.92474	762.16620	1052.76331	787.69427	890.31689	1126.75879	816.74127	984.56940	1143.83752	768.07166	970.68121	1171.63342	1304.56445	666.66528	626.77875	1257.37769	598.00378	804.78510	1338.49658	688.91656	733.04858	1069.41333	652.05237	626.95868	1141.43909	591.44977	799.65326	1043.80151	676.32739	721.27570	1372.85706	503.67899	460.77625	1369.12817	437.04767	366.38675	1383.88293	384.24811	370.27798	1385.24878	418.85730	524.57123	1370.94275	352.06110	427.97498	1371.11426	346.03680	305.19214	1248.55273	330.93112	318.35004	1397.08276	216.50684	315.99396	1384.54407	97.22260	330.32642	1396.38452	223.64954	392.76724	1384.17871	109.48215	411.94189	1375.86084	-65.64074	387.22787	1296.64209	-58.22919	358.52512	1317.48389	-86.75717	448.05530	1389.88867	-153.39635	300.33527	1355.81873	-134.30312	244.53394	1009.51813	500.03061	457.99530	1013.13464	421.59787	340.19861	1006.75629	403.94345	529.10413	1016.27289	328.64612	414.36951	1002.21130	324.69836	329.04614	1125.67249	317.14420	301.66217	987.65784	212.82748	323.99390	1002.30750	227.22218	413.17844	1016.86902	106.76403	418.36670	1027.38147	-73.70835	399.48373	1093.45801	-54.21071	340.25470	1081.56140	-62.26162	440.58035	1031.87793	-191.74269	316.81766	1061.91333	-174.45387	255.75897	
1870	9.345	1191.92395	867.91345	1104.08594	1312.75610	898.08820	1081.18030	1058.17871	909.13287	1092.79199	1186.18030	958.58813	998.75208	1470.76917	809.48248	1065.06689	1584.81213	745.84515	977.79749	1569.16626	715.08069	1049.87732	1598.30823	822.84296	1115.74548	1609.04187	939.11554	1133.99194	1640.53870	917.66992	1162.79578	867.51318	830.15094	1077.12439	760.55298	803.50714	985.56378	764.98486	762.37866	1052.76440	787.73102	890.43628	1126.86450	816.83740	984.78204	1143.78210	768.15723	970.89728	1171.62292	1304.55615	666.89600	626.65314	1257.38306	598.24805	804.65106	1338.44800	689.13275	732.89032	1069.38818	652.20422	626.86932	1141.61877	591.72058	799.77942	1043.74243	676.50098	721.13104	1372.81250	503.73291	460.68906	1369.10962	437.06372	366.33704	1383.94678	384.29324	370.26666	1385.23352	418.98578	524.51495	1370.94055	352.10895	427.96689	1371.12292	346.02063	305.14606	1248.54895	330.93750	318.34985	1397.09155	216.53198	316.03360	1384.55835	97.21950	330.30823	1396.40601	223.65134	392.76077	1384.23914	109.48337	411.91782	1375.92310	-65.65283	387.25623	1296.70056	-58.26180	358.53647	1317.53162	-86.77595	448.05823	1389.97302	-153.38025	300.31500	1355.88049	-134.34659	244.56198	1009.55377	500.05542	457.90405	1013.05896	421.53589	340.04242	1006.76788	404.07956	529.05011	1016.29211	328.73843	414.38278	1002.23553	324.71927	329.01010	1125.68335	317.18970	301.67880	987.66699	212.82066	324.05524	1002.41791	227.40184	413.26651	1016.89471	106.78505	418.37445	1027.40747	-73.69888	399.46365	1093.46741	-54.18013	340.22314	1081.66809	-62.23483	440.64075	1031.90295	-191.73260	316.80637	1061.95667	-174.47272	255.72966	
1871	9.350	1191.74097	867.95844	1103.95447	1312.80432	898.37585	1080.93250	1058.20105	909.39594	1092.63269	1186.18567	958.82568	998.55469	1470.77600	809.72559	1064.71606	1584.73328	745.99127	977.43542	1569.14514	715.28906	1049.49036	1598.48560	822.98413	1115.33032	1609.33337	939.28900	1133.60718	1640.83948	917.76971	1162.32849	867.55072	830.38379	1077.04321	760.55945	803.73706	985.53674	765.02985	762.61169	1052.73230	787.79413	890.63708	1126.84790	816.89282	984.98303	1143.75623	768.25854	971.13013	1171.55457	1304.48303	667.06390	626.51074	1257.38831	598.48499	804.51434	1338.43054	689.36633	732.70691	1069.32043	652.33313	626.75269	1141.61255	591.94409	799.68799	1043.74451	676.65881	720.99243	1372.82715	503.81165	460.62189	1369.12427	437.10202	366.29691	1383.91602	384.33603	370.16885	1385.24573	419.13058	524.50104	1370.99548	352.15204	427.96722	1371.10962	345.99579	305.13776	1248.57104	330.88522	318.36871	1397.21545	216.26518	316.25940	1384.63647	97.17503	330.33087	1396.42334	223.65521	392.77713	1384.27649	109.43523	411.89310	1375.97961	-65.65194	387.29642	1296.77966	-58.25304	358.50305	1317.58691	-86.80108	448.05951	1390.07288	-153.36545	300.32004	1355.96094	-134.30101	244.63635	1009.58862	500.23083	457.91104	1013.07312	421.56833	339.84164	1006.75604	404.17261	529.00031	1016.29303	328.79523	414.36722	1002.26459	324.74930	329.00211	1125.69507	317.16058	301.67014	987.75409	212.89603	323.92752	1002.41724	227.46066	413.25974	1016.38275	106.84437	418.02155	1027.47864	-73.67692	399.48651	1093.55847	-54.16689	340.24854	1081.65552	-62.25243	440.52014	1031.92822	-191.71059	316.80029	1061.98755	-174.44551	255.74991	
1872	9.355	1190.80884	868.37079	1103.38538	1312.83643	898.68372	1080.68372	1058.27271	909.64825	1092.44116	1186.17285	959.05145	998.32690	1470.81006	809.95673	1064.39587	1584.50635	745.88135	976.73608	1569.08618	715.44562	1049.15393	1598.67847	823.14862	1114.91785	1606.08472	939.27948	1134.98364	1641.16113	917.88312	1161.86145	867.56311	830.62097	1076.99438	760.55664	803.94415	985.51526	765.05414	762.85962	1052.71594	787.86127	890.87103	1126.79297	816.96307	985.21497	1143.71216	768.30591	971.37402	1171.53882	1304.44421	667.23706	626.34857	1257.36182	598.72955	804.36292	1338.39771	689.60181	732.52130	1069.28784	652.46204	626.59729	1141.63281	592.16620	799.58167	1043.55408	676.77985	720.94495	1372.83789	503.84882	460.54373	1369.09424	437.11404	366.20877	1383.92041	384.33224	370.16632	1385.13672	419.17831	524.35492	1371.00049	352.20163	427.94098	1371.11670	345.98694	305.15625	1248.57178	330.88388	318.34464	1397.22595	216.28136	316.27609	1384.66235	97.19424	330.31393	1396.45276	223.65013	392.76224	1384.33203	109.44619	411.90732	1376.06055	-65.68224	387.25699	1296.79553	-58.28042	358.48874	1317.66406	-86.83491	448.05084	1390.18909	-153.37582	300.32864	1356.07959	-134.30859	244.64436	1009.60114	500.32446	457.88126	1013.06903	421.57434	339.99670	1006.80066	404.28357	528.95111	1016.31256	328.82367	414.34671	1002.26636	324.76138	329.01151	1125.71375	317.18777	301.67072	987.69342	212.89397	323.91510	1002.40503	227.48262	413.28125	1016.97974	106.82821	418.41602	1027.50427	-73.68030	399.51260	1093.58167	-54.16412	340.24088	1081.67407	-62.23560	440.54810	1031.97229	-191.68594	316.80505	1062.00671	-174.45247	255.79314	
1873	9.360	1190.81506	868.65594	1103.19556	1313.55713	898.44653	1081.80054	1058.29480	909.92322	1092.25684	1186.15625	959.27832	998.09790	1470.15613	810.23914	1064.00330	1584.42139	746.02209	976.37891	1569.03809	715.61945	1048.78723	1598.84082	823.28839	1114.52795	1606.40137	939.42468	1134.62695	1641.45288	918.00391	1161.43042	867.60681	830.85388	1076.88660	760.55432	804.18994	985.46692	765.06921	763.08862	1052.69348	787.89856	891.08533	1126.76941	817.02985	985.45569	1143.69690	768.40063	971.59344	1171.44641	1304.36353	667.45551	626.18555	1257.36938	598.96936	804.26202	1338.37134	689.84235	732.35608	1069.25293	652.58801	626.44843	1141.62280	592.38556	799.48260	1043.51392	676.93298	720.81610	1372.84387	503.85144	460.40280	1369.09766	437.14645	366.17331	1383.91895	384.31342	370.17938	1385.09644	419.28571	524.28235	1370.97974	352.25183	427.95132	1371.10498	345.97400	305.15622	1248.58179	330.86475	318.33023	1397.25452	216.27492	316.24030	1384.70825	97.17092	330.30042	1396.50867	223.64661	392.75711	1384.36597	109.41927	411.89261	1376.10986	-65.67017	387.28372	1296.89294	-58.31329	358.50113	1317.70154	-86.88142	448.05188	1390.28149	-153.34674	300.34775	1356.18115	-134.30690	244.67523	1009.67853	500.28293	457.68811	1013.05518	421.61847	339.75919	1006.75580	404.43674	528.90521	1016.31201	328.89130	414.32114	1002.03430	324.72513	329.14029	1125.68567	317.19739	301.62347	987.70746	212.87524	323.80814	1002.45807	227.50145	413.30814	1016.98059	106.83772	418.40610	1027.54956	-73.64558	399.49905	1093.60718	-54.13744	340.22586	1081.72974	-62.22133	440.51013	1031.99939	-191.67386	316.80258	1062.04871	-174.43819	255.78207	
